<svg xmlns="http://www.w3.org/2000/svg" xmlns:xlink="http://www.w3.org/1999/xlink" width="500" zoomAndPan="magnify" viewBox="0 0 375 374.999991" height="500" preserveAspectRatio="xMidYMid meet" version="1.0"><defs><clipPath id="713ca73fdd"><path d="M 16.613281 115.800781 L 360.113281 115.800781 L 360.113281 257.808594 L 16.613281 257.808594 Z M 16.613281 115.800781 " clip-rule="nonzero"/></clipPath></defs><g clip-path="url(#713ca73fdd)"><path fill="#1552f0" d="M 359.5 191.847656 C 356.785156 177.152344 347.148438 164.996094 335.5 156.132812 C 323.4375 146.960938 309.097656 140.921875 295.023438 135.566406 C 280.183594 129.917969 264.875 125.441406 249.316406 122.25 C 218.316406 115.894531 185.640625 113.675781 154.222656 118.140625 C 150.394531 118.683594 146.617188 119.390625 142.84375 120.226562 C 139.089844 121.054688 135.351562 122.257812 131.582031 122.96875 C 128.710938 123.507812 129.925781 127.894531 132.796875 127.355469 C 136.558594 126.648438 140.574219 126.558594 144.390625 126.273438 C 148.117188 125.992188 151.847656 125.714844 155.578125 125.441406 C 163.195312 124.882812 170.796875 124.425781 178.4375 124.199219 C 193.710938 123.742188 209.019531 124.460938 224.183594 126.320312 C 253.859375 129.960938 283.535156 138.023438 310.640625 150.71875 C 323 156.511719 335.636719 163.90625 343.757812 175.191406 C 351.296875 185.671875 355.300781 199.195312 350.890625 211.75 C 347.3125 221.945312 338.558594 229.027344 329.230469 233.824219 C 319.027344 239.074219 307.65625 241.957031 296.40625 243.921875 C 265.945312 249.242188 234.859375 251.308594 203.957031 250.515625 C 172.78125 249.71875 141.714844 245.886719 111.285156 239.089844 C 96.160156 235.714844 81.199219 231.601562 66.476562 226.769531 C 59.503906 224.484375 52.5 222.15625 45.703125 219.402344 C 40.226562 217.179688 34.675781 214.410156 30.328125 210.34375 C 25.882812 206.183594 23.164062 200.761719 23.128906 194.613281 C 23.09375 188.210938 25.660156 181.90625 29.476562 176.835938 C 37.902344 165.648438 52.1875 159.597656 64.707031 154.304688 C 91.710938 142.890625 120.683594 135.753906 149.902344 133.347656 C 179.15625 130.933594 208.773438 133.453125 237.292969 140.300781 C 244.214844 141.960938 251.074219 143.871094 257.847656 146.054688 C 259.488281 146.585938 260.140625 144.070312 258.554688 143.496094 C 229.800781 133.042969 199.371094 127.960938 168.792969 127.863281 C 138.363281 127.765625 107.789062 132.398438 78.972656 142.25 C 71.761719 144.714844 64.660156 147.492188 57.683594 150.5625 C 50.851562 153.566406 44.023438 156.761719 37.785156 160.890625 C 26.042969 168.664062 15.992188 181.007812 16.644531 195.851562 C 17.273438 210.117188 28.472656 219.203125 40.589844 224.625 C 54.765625 230.976562 69.957031 235.515625 84.886719 239.714844 C 116.105469 248.492188 148.21875 254.070312 180.550781 256.476562 C 212.941406 258.882812 245.582031 258.042969 277.796875 253.890625 C 291.53125 252.121094 305.433594 250.207031 318.636719 245.871094 C 329.851562 242.1875 341.128906 236.761719 349.214844 227.929688 C 358.269531 218.039062 361.929688 205.03125 359.5 191.847656 " fill-opacity="1" fill-rule="nonzero"/></g></svg>